<?xml version="1.0" encoding="UTF-8" standalone="no"?>
<svg width="216px" height="48px" viewBox="0 0 216 48" version="1.1" xmlns="http://www.w3.org/2000/svg" xmlns:xlink="http://www.w3.org/1999/xlink" xmlns:sketch="http://www.bohemiancoding.com/sketch/ns">
    <!-- Generator: Sketch 3.3.2 (12043) - http://www.bohemiancoding.com/sketch -->
    <title>256</title>
    <desc>Created with Sketch.</desc>
    <defs></defs>
    <g id="Page-1" stroke="none" stroke-width="1" fill="none" fill-rule="evenodd" sketch:type="MSPage">
        <g id="256" sketch:type="MSArtboardGroup">
            <g id="cd-icon-navigation" sketch:type="MSLayerGroup" transform="translate(1.000000, 0.000000)">
                <path d="M0,9.6 L0,24 L7,24 L7,17 L13,17 L13,24 L20,24 L20,9.6 L10,0.7 L0,9.6 Z" id="Shape" fill="#FFFFFF" sketch:type="MSShapeGroup"></path>
                <path d="M0,33.6 L0,48 L7,48 L7,41 L13,41 L13,48 L20,48 L20,33.6 L10,24.7 L0,33.6 Z" id="Shape" fill="#D44457" sketch:type="MSShapeGroup"></path>
            </g>
            <g id="Group" sketch:type="MSLayerGroup" transform="translate(26.000000, 0.000000)" fill="#FFFFFF">
                <rect id="Rectangle-110" sketch:type="MSShapeGroup" x="7" y="0" width="2" height="13"></rect>
                <path d="M8,24 C12.418278,24 16,20.418278 16,16 C16,11.581722 12.418278,8 8,8 C3.581722,8 0,11.581722 0,16 C0,20.418278 3.581722,24 8,24 Z M4,17 C5.1045695,17 6,16.1045695 6,15 C6,13.8954305 5.1045695,13 4,13 C2.8954305,13 2,13.8954305 2,15 C2,16.1045695 2.8954305,17 4,17 Z M12,17 C13.1045695,17 14,16.1045695 14,15 C14,13.8954305 13.1045695,13 12,13 C10.8954305,13 10,13.8954305 10,15 C10,16.1045695 10.8954305,17 12,17 Z M6,19.5 C6,19.2238576 6.21505737,19 6.49047852,19 L9.50952148,19 C9.78040529,19 10,19.2319336 10,19.5 C10,19.7761424 9.78494263,20 9.50952148,20 L6.49047852,20 C6.21959471,20 6,19.7680664 6,19.5 Z" id="Oval-513" sketch:type="MSShapeGroup"></path>
                <rect id="Rectangle-111" sketch:type="MSShapeGroup" x="4" y="1" width="7.93502634" height="1" rx="11"></rect>
                <rect id="Rectangle-111-Copy" sketch:type="MSShapeGroup" x="4" y="3" width="7.93502634" height="1" rx="11"></rect>
            </g>
            <g id="Group-Copy" sketch:type="MSLayerGroup" transform="translate(26.000000, 24.000000)" fill="#D44457">
                <rect id="Rectangle-110" sketch:type="MSShapeGroup" x="7" y="0" width="2" height="13"></rect>
                <path d="M8,24 C12.418278,24 16,20.418278 16,16 C16,11.581722 12.418278,8 8,8 C3.581722,8 0,11.581722 0,16 C0,20.418278 3.581722,24 8,24 Z M4,17 C5.1045695,17 6,16.1045695 6,15 C6,13.8954305 5.1045695,13 4,13 C2.8954305,13 2,13.8954305 2,15 C2,16.1045695 2.8954305,17 4,17 Z M12,17 C13.1045695,17 14,16.1045695 14,15 C14,13.8954305 13.1045695,13 12,13 C10.8954305,13 10,13.8954305 10,15 C10,16.1045695 10.8954305,17 12,17 Z M5,19.5 C5,19.2238576 5.22788048,19 5.49100518,19 L10.5089948,19 C10.7801695,19 11,19.2319336 11,19.5 C11,19.7761424 10.7721195,20 10.5089948,20 L5.49100518,20 C5.21983051,20 5,19.7680664 5,19.5 Z" id="Oval-513" sketch:type="MSShapeGroup"></path>
                <rect id="Rectangle-111" sketch:type="MSShapeGroup" x="4" y="1" width="7.93502634" height="1" rx="11"></rect>
                <rect id="Rectangle-111-Copy" sketch:type="MSShapeGroup" x="4" y="3" width="7.93502634" height="1" rx="11"></rect>
            </g>
            <path d="M56.674527,3 C56.7002545,3.32725076 56.7256929,3.66092154 56.7506378,4 L54.5004358,4 C54.2307968,4 54,4.22385763 54,4.5 C54,4.76806641 54.2240528,5 54.5004358,5 L56.7708406,5 C56.7178016,5.85633337 56.6509348,6.58366365 56.566654,7.06952041 C55.4693812,13.3950116 52.7232285,14.4783059 52.7232285,18.6279836 C52.7232285,20.2033188 54.1284916,23.0724366 57.2488084,23.7694385 C57.3716745,23.871668 57.521696,23.9250713 57.7035132,23.9250713 C57.8740745,23.9250713 58.0407304,23.9191433 58.2035132,23.9076496 C58.3662959,23.9191433 58.5329518,23.9250713 58.7035132,23.9250713 C58.8853303,23.9250713 59.0353518,23.871668 59.1582179,23.7694385 L59.1582179,23.7694385 C62.2785348,23.0724366 63.6837978,20.2033188 63.6837978,18.6279836 C63.6837978,14.4783059 60.9376451,13.3950116 59.8403723,7.06952041 C59.7560915,6.58366365 59.6892247,5.85633337 59.6361857,5 L59.6361857,5 L61.4995642,5 C61.7692032,5 62,4.77614237 62,4.5 C62,4.23193359 61.7759472,4 61.4995642,4 L59.6563885,4 C59.6813334,3.66092155 59.7067718,3.32725077 59.7324993,3 L61.4995642,3 C61.7692032,3 62,2.77614237 62,2.5 C62,2.23193359 61.7759472,2 61.4995642,2 L59.8135564,2 C60.1185607,-1.65411078 60.4339871,-4.28819857 60.4339871,-4.28819857 C60.4339871,-5.32369242 59.6658906,-6.16312604 58.7035132,-6.16312604 C58.5296677,-6.16312604 58.3618098,-6.13493706 58.2035132,-6.08265721 C58.0452166,-6.13493706 57.8773586,-6.16312604 57.7035132,-6.16312604 C56.7411357,-6.16312604 55.9730392,-5.32369242 55.9730392,-4.28819857 C55.9730392,-4.28819857 56.2884655,-1.65411177 56.5934698,2 L54.5004358,2 C54.2307968,2 54,2.22385763 54,2.5 C54,2.76806641 54.2240528,3 54.5004358,3 L56.674527,3 Z M56,19.5 C56,19.2238576 56.2150574,19 56.4904785,19 L59.5095215,19 C59.7804053,19 60,19.2319336 60,19.5 C60,19.7761424 59.7849426,20 59.5095215,20 L56.4904785,20 C56.2195947,20 56,19.7680664 56,19.5 Z" id="Oval-519" fill="#FFFFFF" sketch:type="MSShapeGroup"></path>
            <path d="M59.9898908,24 C59.9323071,24.6204064 59.8727356,25.291003 59.8135564,26 L61.4995642,26 C61.7759472,26 62,26.2319336 62,26.5 C62,26.7761424 61.7692032,27 61.4995642,27 L59.7324993,27 C59.7067718,27.3272508 59.6813334,27.6609216 59.6563885,28 L61.4995642,28 C61.7759472,28 62,28.2319336 62,28.5 C62,28.7761424 61.7692032,29 61.4995642,29 L59.6361857,29 L59.6361857,29 C59.6892247,29.8563334 59.7560915,30.5836636 59.8403723,31.0695204 C60.9376451,37.3950116 63.6837978,38.4783059 63.6837978,42.6279836 C63.6837978,44.2033188 62.2785348,47.0724366 59.1582179,47.7694385 L59.1582179,47.7694385 C59.0353518,47.871668 58.8853303,47.9250713 58.7035132,47.9250713 C58.5329518,47.9250713 58.3662959,47.9191433 58.2035132,47.9076496 C58.0407304,47.9191433 57.8740745,47.9250713 57.7035132,47.9250713 C57.521696,47.9250713 57.3716745,47.871668 57.2488084,47.7694385 C54.1284916,47.0724366 52.7232285,44.2033188 52.7232285,42.6279836 C52.7232285,38.4783059 55.4693812,37.3950116 56.566654,31.0695204 C56.6509348,30.5836636 56.7178016,29.8563334 56.7708406,29 L54.5004358,29 C54.2240528,29 54,28.7680664 54,28.5 C54,28.2238576 54.2307968,28 54.5004358,28 L56.7506378,28 C56.7256929,27.6609215 56.7002545,27.3272508 56.674527,27 L56.674527,27 L54.5004358,27 C54.2240528,27 54,26.7680664 54,26.5 C54,26.2238576 54.2307968,26 54.5004358,26 L56.5934698,26 C56.5342907,25.291003 56.4747192,24.6204064 56.4171355,24 L59.9898908,24 Z M56,43.5 C56,43.2238576 56.2150574,43 56.4904785,43 L59.5095215,43 C59.7804053,43 60,43.2319336 60,43.5 C60,43.7761424 59.7849426,44 59.5095215,44 L56.4904785,44 C56.2195947,44 56,43.7680664 56,43.5 Z" id="Oval-519-Copy" fill="#D44457" sketch:type="MSShapeGroup"></path>
            <g id="Group" sketch:type="MSLayerGroup" transform="translate(78.000000, 0.000000)" fill="#FFFFFF">
                <rect id="Rectangle-125" sketch:type="MSShapeGroup" x="0" y="17" width="9" height="5" rx="1"></rect>
                <rect id="Rectangle-126" sketch:type="MSShapeGroup" x="6" y="0" width="2" height="19" rx="1"></rect>
                <rect id="Rectangle-127" sketch:type="MSShapeGroup" x="3.5" y="2" width="4" height="1" rx="1"></rect>
                <rect id="Rectangle-128" sketch:type="MSShapeGroup" x="3.5" y="4" width="4" height="1" rx="1"></rect>
            </g>
            <g id="Group-Copy-2" sketch:type="MSLayerGroup" transform="translate(78.000000, 24.000000)" fill="#D44457">
                <rect id="Rectangle-125" sketch:type="MSShapeGroup" x="0" y="17" width="9" height="5" rx="1"></rect>
                <rect id="Rectangle-126" sketch:type="MSShapeGroup" x="6" y="0" width="2" height="19" rx="1"></rect>
                <rect id="Rectangle-127" sketch:type="MSShapeGroup" x="3.5" y="2" width="4" height="1" rx="1"></rect>
                <rect id="Rectangle-128" sketch:type="MSShapeGroup" x="3.5" y="4" width="4" height="1" rx="1"></rect>
            </g>
            <path d="M96,9.00292933 C96,8.44902676 96.4474692,8 97.0006947,8 L118.999305,8 C119.551974,8 120,8.43788135 120,9.00292933 L120,13.9970707 C120,14.5509732 119.552531,15 118.999305,15 L97.0006946,15 C96.4480262,15 96,14.5621186 96,13.9970707 L96,9.00292933 Z M99.0019678,8.60644329 L97.0296112,8.60644329 C96.4623788,8.60644329 96.5155552,9.00508576 96.5155552,9.55898833 L96.5155552,14.0982928 C96.5155552,14.3084749 96.8553917,14.5832925 96.8553917,14.5832925 L103.662192,14.5832925 C103.073093,9.96544011 100.55863,13.7834082 99.0019678,8.87807858 L99.0019675,8 L99.0019678,8.60644329 Z M116.970921,8.60644329 L118.422918,8.60644329 C118.990151,8.60644329 119.041975,8.79073327 119.041975,9.34463584 L119.041975,14.1462002 C119.041975,14.3563823 118.782029,14.5832925 118.782029,14.5832925 L116.970921,14.5832925 C116.970921,12.9594784 116.970921,10.0976533 116.970921,8.60644329 Z" id="Rectangle-133" fill="#FFFFFF" sketch:type="MSShapeGroup"></path>
            <path d="M96,33.0029293 C96,32.4490268 96.4474692,32 97.0006947,32 L118.999305,32 C119.551974,32 120,32.4378814 120,33.0029293 L120,37.9970707 C120,38.5509732 119.552531,39 118.999305,39 L97.0006946,39 C96.4480262,39 96,38.5621186 96,37.9970707 L96,33.0029293 Z M99.0019678,32.6064433 L97.0296112,32.6064433 C96.4623788,32.6064433 96.5155552,33.0050858 96.5155552,33.5589883 L96.5155552,38.0982928 C96.5155552,38.3084749 96.8553917,38.5832925 96.8553917,38.5832925 L103.662192,38.5832925 C103.073093,33.9654401 100.55863,37.7834082 99.0019678,32.8780786 L99.0019675,32 L99.0019678,32.6064433 Z M116.970921,32.6064433 L118.422918,32.6064433 C118.990151,32.6064433 119.041975,32.7907333 119.041975,33.3446358 L119.041975,38.1462002 C119.041975,38.3563823 118.782029,38.5832925 118.782029,38.5832925 L116.970921,38.5832925 C116.970921,36.9594784 116.970921,34.0976533 116.970921,32.6064433 Z" id="Rectangle-133-Copy-3" fill="#D44457" sketch:type="MSShapeGroup"></path>
            <path d="M125.5,13 C125.776142,13 126,12.7761424 126,12.5 C126,12.2238576 125.776142,12 125.5,12 C125.223858,12 125,12.2238576 125,12.5 C125,12.7761424 125.223858,13 125.5,13 Z M120,11.9989566 C120,11.4472481 120.447469,11 121.000695,11 L142.999305,11 C143.551974,11 144,11.4426603 144,11.9989566 L144,13.0010434 C144,13.5527519 143.552531,14 142.999305,14 L121.000695,14 C120.448026,14 120,13.5573397 120,13.0010434 L120,11.9989566 Z M139.5,13 C139.776142,13 140,12.7761424 140,12.5 C140,12.2238576 139.776142,12 139.5,12 C139.223858,12 139,12.2238576 139,12.5 C139,12.7761424 139.223858,13 139.5,13 Z M137.5,13 C137.776142,13 138,12.7761424 138,12.5 C138,12.2238576 137.776142,12 137.5,12 C137.223858,12 137,12.2238576 137,12.5 C137,12.7761424 137.223858,13 137.5,13 Z M133.5,13 C133.776142,13 134,12.7761424 134,12.5 C134,12.2238576 133.776142,12 133.5,12 C133.223858,12 133,12.2238576 133,12.5 C133,12.7761424 133.223858,13 133.5,13 Z M131.5,13 C131.776142,13 132,12.7761424 132,12.5 C132,12.2238576 131.776142,12 131.5,12 C131.223858,12 131,12.2238576 131,12.5 C131,12.7761424 131.223858,13 131.5,13 Z M127.5,13 C127.776142,13 128,12.7761424 128,12.5 C128,12.2238576 127.776142,12 127.5,12 C127.223858,12 127,12.2238576 127,12.5 C127,12.7761424 127.223858,13 127.5,13 Z M123.5,13 C123.776142,13 124,12.7761424 124,12.5 C124,12.2238576 123.776142,12 123.5,12 C123.223858,12 123,12.2238576 123,12.5 C123,12.7761424 123.223858,13 123.5,13 Z" id="Rectangle-135" fill="#FFFFFF" sketch:type="MSShapeGroup"></path>
            <path d="M125.5,36 C125.776142,36 126,35.7761424 126,35.5 C126,35.2238576 125.776142,35 125.5,35 C125.223858,35 125,35.2238576 125,35.5 C125,35.7761424 125.223858,36 125.5,36 Z M120,34.9989566 C120,34.4472481 120.447469,34 121.000695,34 L142.999305,34 C143.551974,34 144,34.4426603 144,34.9989566 L144,36.0010434 C144,36.5527519 143.552531,37 142.999305,37 L121.000695,37 C120.448026,37 120,36.5573397 120,36.0010434 L120,34.9989566 Z M139.5,36 C139.776142,36 140,35.7761424 140,35.5 C140,35.2238576 139.776142,35 139.5,35 C139.223858,35 139,35.2238576 139,35.5 C139,35.7761424 139.223858,36 139.5,36 Z M137.5,36 C137.776142,36 138,35.7761424 138,35.5 C138,35.2238576 137.776142,35 137.5,35 C137.223858,35 137,35.2238576 137,35.5 C137,35.7761424 137.223858,36 137.5,36 Z M133.5,36 C133.776142,36 134,35.7761424 134,35.5 C134,35.2238576 133.776142,35 133.5,35 C133.223858,35 133,35.2238576 133,35.5 C133,35.7761424 133.223858,36 133.5,36 Z M131.5,36 C131.776142,36 132,35.7761424 132,35.5 C132,35.2238576 131.776142,35 131.5,35 C131.223858,35 131,35.2238576 131,35.5 C131,35.7761424 131.223858,36 131.5,36 Z M127.5,36 C127.776142,36 128,35.7761424 128,35.5 C128,35.2238576 127.776142,35 127.5,35 C127.223858,35 127,35.2238576 127,35.5 C127,35.7761424 127.223858,36 127.5,36 Z M123.5,36 C123.776142,36 124,35.7761424 124,35.5 C124,35.2238576 123.776142,35 123.5,35 C123.223858,35 123,35.2238576 123,35.5 C123,35.7761424 123.223858,36 123.5,36 Z" id="Rectangle-135-Copy" fill="#D44457" sketch:type="MSShapeGroup"></path>
            <g id="Oval-535-+-Rectangle-137-+-Rectangle-137-Copy" sketch:type="MSLayerGroup" transform="translate(147.000000, 4.000000)" fill="#FFFFFF">
                <path d="M9,18 C13.9705627,18 18,13.9705627 18,9 C18,4.02943725 13.9705627,0 9,0 C4.02943725,0 0,4.02943725 0,9 C0,13.9705627 4.02943725,18 9,18 Z M9,16 C12.8659932,16 16,12.8659932 16,9 C16,5.13400675 12.8659932,2 9,2 C5.13400675,2 2,5.13400675 2,9 C2,12.8659932 5.13400675,16 9,16 Z" id="Oval-535" sketch:type="MSShapeGroup"></path>
                <rect id="Rectangle-137" sketch:type="MSShapeGroup" x="11" y="5" width="1" height="7" rx="1"></rect>
                <rect id="Rectangle-137-Copy" sketch:type="MSShapeGroup" x="6" y="5" width="1" height="7" rx="1"></rect>
            </g>
            <g id="Oval-535-+-Rectangle-137-+-Rectangle-137-Copy-2" sketch:type="MSLayerGroup" transform="translate(147.000000, 27.000000)" fill="#D44457">
                <path d="M9,18 C13.9705627,18 18,13.9705627 18,9 C18,4.02943725 13.9705627,0 9,0 C4.02943725,0 0,4.02943725 0,9 C0,13.9705627 4.02943725,18 9,18 Z M9,16 C12.8659932,16 16,12.8659932 16,9 C16,5.13400675 12.8659932,2 9,2 C5.13400675,2 2,5.13400675 2,9 C2,12.8659932 5.13400675,16 9,16 Z" id="Oval-535" sketch:type="MSShapeGroup"></path>
                <rect id="Rectangle-137" sketch:type="MSShapeGroup" x="11" y="5" width="1" height="7" rx="1"></rect>
                <rect id="Rectangle-137-Copy" sketch:type="MSShapeGroup" x="6" y="5" width="1" height="7" rx="1"></rect>
            </g>
            <g id="Group" sketch:type="MSLayerGroup" transform="translate(170.000000, 7.000000)" fill="#FFFFFF">
                <circle id="Oval-539" sketch:type="MSShapeGroup" cx="18" cy="9" r="3"></circle>
                <circle id="Oval-539-Copy" sketch:type="MSShapeGroup" cx="13.5" cy="4.5" r="2.5"></circle>
                <circle id="Oval-539-Copy-2" sketch:type="MSShapeGroup" cx="9" cy="2" r="2"></circle>
                <circle id="Oval-539-Copy-3" sketch:type="MSShapeGroup" cx="5" cy="4" r="2"></circle>
                <circle id="Oval-539-Copy-4" sketch:type="MSShapeGroup" cx="1.5" cy="6.5" r="1.5"></circle>
            </g>
            <g id="Group-Copy-3" sketch:type="MSLayerGroup" transform="translate(170.000000, 29.000000)" fill="#D44457">
                <circle id="Oval-539" sketch:type="MSShapeGroup" cx="18" cy="9" r="3"></circle>
                <circle id="Oval-539-Copy" sketch:type="MSShapeGroup" cx="13.5" cy="4.5" r="2.5"></circle>
                <circle id="Oval-539-Copy-2" sketch:type="MSShapeGroup" cx="9" cy="2" r="2"></circle>
                <circle id="Oval-539-Copy-3" sketch:type="MSShapeGroup" cx="5" cy="4" r="2"></circle>
                <circle id="Oval-539-Copy-4" sketch:type="MSShapeGroup" cx="1.5" cy="6.5" r="1.5"></circle>
            </g>
            <g id="Rectangle-141-+-Rectangle-142" sketch:type="MSLayerGroup" transform="translate(198.000000, 4.000000)" fill="#FFFFFF">
                <path d="M1.04667109,5.6628702 C1.19729319,3.45372002 3.11755643,1.66284996 5.31275878,1.66284996 L7.00663774,1.66284996 C9.21211082,1.66284996 11.1338901,3.44245093 11.2994652,5.64319337 L12.0536196,15.6670414 C12.0949972,16.2170113 11.712665,16.4781987 11.211435,16.2605633 C11.211435,16.2605633 7.34210364,14.4970928 6,14.4970928 C4.67236869,14.4970928 1.19196044,16.234966 1.19196044,16.234966 C0.697511447,16.4712798 0.327289178,16.2139298 0.365372621,15.655366 L1.04667109,5.6628702 Z" id="Rectangle-141" sketch:type="MSShapeGroup"></path>
                <rect id="Rectangle-142" sketch:type="MSShapeGroup" x="5" y="0" width="2" height="3" rx="1"></rect>
            </g>
            <g id="Rectangle-141-+-Rectangle-142-Copy" sketch:type="MSLayerGroup" transform="translate(198.000000, 28.000000)" fill="#D44457">
                <path d="M1.04667109,5.6628702 C1.19729319,3.45372002 3.11755643,1.66284996 5.31275878,1.66284996 L7.00663774,1.66284996 C9.21211082,1.66284996 11.1338901,3.44245093 11.2994652,5.64319337 L12.0536196,15.6670414 C12.0949972,16.2170113 11.712665,16.4781987 11.211435,16.2605633 C11.211435,16.2605633 7.34210364,14.4970928 6,14.4970928 C4.67236869,14.4970928 1.19196044,16.234966 1.19196044,16.234966 C0.697511447,16.4712798 0.327289178,16.2139298 0.365372621,15.655366 L1.04667109,5.6628702 Z" id="Rectangle-141" sketch:type="MSShapeGroup"></path>
                <rect id="Rectangle-142" sketch:type="MSShapeGroup" x="5" y="0" width="2" height="3" rx="1"></rect>
            </g>
        </g>
    </g>
</svg>