<?xml version="1.0" encoding="UTF-8"?>
<svg width="445px" height="445px" viewBox="0 0 445 445" version="1.1" xmlns="http://www.w3.org/2000/svg" xmlns:xlink="http://www.w3.org/1999/xlink">
    <!-- Generator: Sketch 51.3 (57544) - http://www.bohemiancoding.com/sketch -->
    <title>Combined Shape</title>
    <desc>Created with Sketch.</desc>
    <defs>
        <linearGradient x1="-4.48320288%" y1="-8.8376355%" x2="122.325895%" y2="0%" id="linearGradient-1">
            <stop stop-color="#FCAFAF" offset="0%"></stop>
            <stop stop-color="#F9F8E6" offset="100%"></stop>
        </linearGradient>
    </defs>
    <g stroke="none" stroke-width="1" fill="none" fill-rule="evenodd">
        <g transform="translate(-36.000000, -141.000000)" fill="url(#linearGradient-1)">
            <path d="M178.731757,276.287474 L189.648504,297.712796 C191.655401,301.651554 190.088509,306.471872 186.152295,308.477474 L185.26522,308.929461 C181.32742,310.93587 176.508913,309.370615 174.501393,305.430635 L165.725586,288.207144 C152.221699,298.134984 135.545773,304 117.5,304 C72.4887929,304 36,267.511207 36,222.5 C36,177.488793 72.4887929,141 117.5,141 C158.607697,141 192.607064,171.434381 198.194956,211 L247.805044,211 C253.392936,171.434381 287.392303,141 328.5,141 C352.465049,141 374.014203,151.343674 388.926523,167.810081 C384.489581,170.822386 380.37347,174.267041 376.639621,178.083 C364.672264,165.1191 347.534291,157 328.5,157 C292.325349,157 263,186.325349 263,222.5 C263,258.674651 292.325349,288 328.5,288 C342.602877,288 355.664749,283.542925 366.353843,275.960547 C369.233885,280.482234 372.560347,284.695268 376.271661,288.538465 C362.848804,298.265341 346.344103,304 328.5,304 C286.359202,304 251.688512,272.01667 247.437918,231 L198.562082,231 C196.772623,248.267621 189.591724,263.934238 178.731759,276.287475 Z M164.179344,268.448781 C175.818511,256.625721 183,240.401524 183,222.5 C183,186.325349 153.674651,157 117.5,157 C81.3253489,157 52,186.325349 52,222.5 C52,258.674651 81.3253489,288 117.5,288 C134.394633,288 149.795319,281.603653 161.412492,271.100526 C162.086301,270.034365 163.020096,269.115126 164.179344,268.448781 Z"></path>
        </g>
    </g>
</svg>