<?xml version="1.0" encoding="UTF-8" standalone="no"?>
<svg width="50px" height="50px" viewBox="0 0 50 50" version="1.1" xmlns="http://www.w3.org/2000/svg" xmlns:xlink="http://www.w3.org/1999/xlink">
    <!-- Generator: Sketch 41.1 (35376) - http://www.bohemiancoding.com/sketch -->
    <title>Artboard 4</title>
    <desc>Created with Sketch.</desc>
    <defs></defs>
    <g stroke="none" stroke-width="1" fill="none" fill-rule="evenodd">
        <g>
            <path d="M38.2811317,27.791731 C36.0709973,29.5933236 34.574893,32.1215729 33.5873769,34.7702149 C33.3147631,35.5054711 33.0792248,36.2622259 32.6522026,36.915787 C32.0847298,37.7800354 31.2228341,38.4163975 30.323863,38.9409662 C26.7576387,41.0306416 22.2850282,41.5681095 18.314027,40.3770806 C17.7024998,40.1964913 17.0761425,39.9557057 16.6482479,39.4913334 C16.339431,39.1645529 16.1475109,38.743178 15.9856874,38.3304026 C14.3718139,34.2069485 14.7478028,29.6277216 14.2392146,25.2419831 C14.1585209,24.5755228 14.0551457,23.9047628 13.8562467,23.2684008 C13.2739437,21.4496092 11.9108749,19.9747972 11.2552933,18.1904036 C11.0563943,17.6357367 10.9233588,17.0294728 11.0489792,16.4533072 C11.1741635,15.8728418 11.6090369,15.3353738 12.1983189,15.2192808 C12.7509615,15.1117872 13.3184343,15.3955703 13.693987,15.7997462 C14.0695398,16.2125215 14.290684,16.7284908 14.5044132,17.2401603 C15.2044854,18.8869621 15.9041214,20.5294641 16.6046297,22.1762659 C16.8772435,22.3009585 16.9653522,21.8193872 16.8624133,21.5442036 C15.7867884,18.736471 14.7181424,15.9330382 13.6425175,13.1201459 C13.384734,12.4519658 13.1265142,11.7545474 13.1487595,11.0429398 C13.1710048,10.3235927 13.5465575,9.56855773 14.2248206,9.30713332 C14.9174776,9.04527893 15.7274676,9.37979899 16.2286408,9.91726694 C16.737229,10.4616145 16.9945764,11.173652 17.237966,11.8710704 C18.3284211,14.9053995 19.4188761,17.949618 20.5093312,20.9938364 C20.6052912,21.2776195 21.0401647,21.3120174 21.2831181,21.1314282 C21.5260715,20.9551387 21.6294466,20.6455572 21.7105765,20.3531746 C22.7124866,16.8531833 22.7787863,13.1201459 23.9207108,9.65541255 C24.1270249,9.03839934 24.4144689,8.36978922 25.018581,8.10879478 C25.8146132,7.75277601 26.779884,8.31905224 27.1406065,9.10332547 C27.5017652,9.88802868 27.4132203,10.788825 27.2657908,11.6384543 C26.7502236,14.6818128 25.6449384,17.6615351 25.711238,20.7444513 C25.7186531,21.0024359 25.7408984,21.2819192 25.9249672,21.4582087 C26.109036,21.638798 26.5072702,21.587201 26.5439095,21.3335162 C26.9565377,18.3881918 27.376581,15.4299682 27.7966243,12.4738945 C27.9143934,11.6165256 28.1944223,10.5781375 29.041924,10.3601405 C29.7049207,10.1928805 30.3897264,10.6649923 30.6776066,11.2678164 C30.9720294,11.8710704 30.9571993,12.5680589 30.9131449,13.236669 C30.633116,17.8120262 29.2700472,22.3224572 29.5426609,26.8973844 C29.6015455,27.8046303 29.8226898,28.8580675 30.6553613,29.2536439 C31.2668885,29.5331272 32.025409,29.3396387 32.5492637,28.9182639 C33.0792248,28.496889 33.4107232,27.8949249 33.6981671,27.288661 C34.2215855,26.1922264 34.6263625,25.0527944 35.1938353,23.986458 C35.6583691,23.1050105 36.2476511,22.257961 37.1099829,21.7505913 C38.5022759,20.9207408 40.4842871,21.2604205 41.5232727,22.5030464 C41.7513959,22.77823 41.9359009,23.1007108 41.9873703,23.44899 C42.0462549,23.8789644 41.8918465,24.304639 41.6776811,24.6830164 C40.9265756,26.0288362 39.4819408,26.819989 38.2811317,27.791731" fill="#0A0B09"></path>
            <path d="M21.6480231,32.0372623 C22.0420254,32.0634981 24.2071617,32.2846286 23.9838937,32.7643693 C23.7925212,33.1766465 22.9022636,32.9480201 22.5593879,32.8243369 C21.9965275,32.6219463 21.3787882,32.5394908 20.7685537,32.5882145 C20.594067,32.6032064 20.4120755,32.6219463 20.2455626,32.5769706 C20.0870236,32.524499 19.9524062,32.3783279 20.016197,32.2546448 C20.0476234,32.1946772 20.1109452,32.1534495 20.174736,32.1197177 C20.4594496,31.9810427 20.8163969,31.9922866 21.1489535,32.0110265 C21.2202492,32.0110265 21.2915448,32.0185224 21.3628405,32.0185224 C21.4580577,32.0260184 21.5528059,32.0335143 21.6480231,32.0372623" fill="#FFFFFF"></path>
            <path d="M28.3674689,30.0021679 C28.593886,30.0198085 29.1479904,30.2535466 28.96274,30.6063588 C28.8647632,30.7959953 28.5214325,30.7563039 28.3604706,30.7607141 C27.9154581,30.7783547 27.498439,30.9856319 27.0950049,31.192909 C26.4552738,31.5236705 25.8015459,31.8632522 25.3565334,32.4453923 C24.7863741,33.1818877 24.6472305,34.2050431 24.6472305,35.1664563 C24.6472305,35.4222451 24.6772822,36.0043852 24.3080165,35.9999751 C23.6530537,35.9911548 24.2265064,33.3847547 24.3549466,32.9966613 C24.4595101,32.6835405 24.584657,32.3704197 24.765379,32.1014004 C25.1898081,31.4707486 25.8641194,31.1135263 26.5178472,30.7695344 C26.8307145,30.6063588 27.15058,30.4431831 27.4634473,30.2800075 C27.7483211,30.1300623 28.0476033,29.9801171 28.3674689,30.0021679" fill="#FFFFFF"></path>
        </g>
    </g>
</svg>