<?xml version="1.0" encoding="UTF-8" standalone="no"?>
<svg width="60px" height="60px" viewBox="0 0 60 60" version="1.1" xmlns="http://www.w3.org/2000/svg" xmlns:xlink="http://www.w3.org/1999/xlink">
    <!-- Generator: Sketch 41.1 (35376) - http://www.bohemiancoding.com/sketch -->
    <title>Artboard 3</title>
    <desc>Created with Sketch.</desc>
    <defs></defs>
    <g stroke="none" stroke-width="1" fill="none" fill-rule="evenodd">
        <g fill="#0A0B09">
            <path d="M40.2996372,17.2339793 C39.8587211,17.8429289 39.445286,18.4635145 39.0629959,19.0879788 C38.8718509,19.4021502 38.6886448,19.7202003 38.5133776,20.0343718 C38.434599,20.1778822 38.3771944,20.3369073 38.2568891,20.4687817 C38.1671181,20.5618695 38.0675761,20.6782293 38.1616219,20.7945891 C38.223912,20.8682837 38.3668127,20.8721623 38.4846753,20.9031916 C38.7949043,20.9807648 39.1045227,21.0544593 39.4263547,21.1087606 C40.0553624,21.2212417 40.7142937,21.2910576 41.3683395,21.2988149 C41.5869654,21.2988149 41.8220799,21.2949363 41.9930723,21.2018484 C42.1298662,21.1242752 42.1860494,21.0001581 42.225744,20.887677 C42.6776524,19.7434723 43.1295608,18.595389 43.5814692,17.4511843 C43.6535303,17.2611299 43.7072708,17.043925 43.4984158,16.9042932 C43.4074234,16.849992 43.2791792,16.8189627 43.1619272,16.7995694 C42.6129196,16.6948456 42.024828,16.6599377 41.455057,16.7026029 C41.1631486,16.7219962 40.8535303,16.7724188 40.6342937,16.9004146 C40.4858967,16.9896238 40.3845227,17.1137409 40.2996372,17.2339793 Z M23.7805532,56.5248043 C23.6083395,57.304415 23.655973,58.3128665 24.8028433,58.5960087 C25.5240646,58.7744271 26.3686448,58.5261928 26.863912,58.1499628 C27.353683,57.7698542 27.5716982,57.281143 27.7640646,56.8079465 C27.9368891,56.3968085 28.1060494,55.9895492 28.2721563,55.5784113 C28.7851334,54.3139682 29.2706295,53.049525 29.7378051,51.7773246 C30.2055914,50.5090028 30.6556677,49.2329237 31.0971944,47.9607232 C31.5393318,46.6846441 31.9723089,45.408565 32.4071181,44.1324859 C32.8413166,42.8564068 33.2767364,41.5803276 33.7231486,40.3081272 C34.1683395,39.0359267 34.6245227,37.7637263 35.1002479,36.4954045 C35.5753624,35.2309614 36.0706295,33.9665182 36.5958204,32.7098324 C37.1191792,31.4531466 37.6724616,30.2003394 38.2642173,28.9552896 C38.8553624,27.7141184 39.4855914,26.4768259 40.1622326,25.2511694 C40.5011639,24.6383411 40.8516982,24.0293915 41.2144463,23.4204419 C41.3964311,23.1140278 41.5814692,22.8114923 41.7695608,22.5089568 C41.8978051,22.3033878 42.1518509,21.993095 41.6138356,21.9349151 C41.2681868,21.8961286 40.9109349,21.8806139 40.5622326,21.857342 C39.8446753,21.8030407 39.1265074,21.7487395 38.4089501,21.6944382 C38.1933776,21.6828023 37.9637593,21.6711663 37.7854387,21.7448608 C37.5979578,21.8185554 37.5271181,21.9620658 37.4672708,22.0939402 C35.8440646,25.6933366 34.2287975,29.2849757 32.6055914,32.8843721 C29.095973,40.6727212 25.5649807,48.4998569 23.7805532,56.5248043 L23.7805532,56.5248043 Z M23.8205539,60.5421953 C22.699962,60.3574119 21.9141292,59.7232687 21.6247612,59.0555285 C21.3453225,58.3877884 21.4666017,57.6906508 21.6169596,57.0061122 C22.3290319,53.7136071 23.5446613,50.4588987 24.8766053,47.2377873 C27.4922653,40.879557 30.525665,34.5801214 33.5654477,28.289085 C35.3264791,24.639612 37.0875105,20.9943386 38.8485419,17.3406659 C39.2953601,16.4293476 39.7492708,15.4970311 40.6961,14.7243003 C41.6400922,13.9599688 43.1933177,13.38882 44.7812956,13.5022098 C46.373529,13.6072004 47.7629211,14.6067109 47.2614917,15.50963 C43.6819808,22.0862407 40.099633,28.6712508 37.2626916,35.3822495 C34.142056,42.7441899 31.9427172,50.2321191 28.7249164,57.5814606 C28.4000866,58.324794 28.0390858,59.0975248 27.2369406,59.7064702 C26.4404693,60.3238149 25.0808651,60.7395777 23.8205539,60.5421953 L23.8205539,60.5421953 Z" transform="translate(34.411266, 37.039777) rotate(-76.000000) translate(-34.411266, -37.039777) "></path>
            <path d="M15.1294832,32.9280814 C15.1368114,32.9647227 15.1374221,33.0013639 15.1245977,33.0318982 C15.1062771,33.0807532 15.0665824,33.1173944 15.0274984,33.1479288 C14.5933,33.514341 14.144445,33.8563257 13.6974221,34.2044173 C13.332842,34.4853333 12.9438343,34.7173944 12.7410862,35.1570891 C12.5529946,35.5662494 12.6403229,35.9693028 12.5609336,36.3906769 C12.5279565,36.5616692 12.4503992,36.7204478 12.4216969,36.8975471 C12.3899412,37.0929669 12.3685671,37.2883868 12.3074984,37.4776998 C12.2641397,37.6120509 12.1920786,37.746402 12.064445,37.8074707 C11.9447503,37.8624326 11.7994068,37.8380051 11.6888725,37.7647227 C11.4476511,37.6120509 11.3395595,37.3311349 11.1862771,37.1051807 C11.0122313,36.8486921 10.903529,36.5616692 10.7606282,36.2807532 C10.634216,36.0364784 10.4736053,35.7983104 10.2458191,35.6395318 C10.2195595,35.6212112 10.1914679,35.6089975 10.1603229,35.6028906 C10.054674,35.5784631 9.88246027,35.725028 9.79146791,35.773883 C9.6223076,35.8593791 9.46169691,35.9693028 9.29925417,36.0670127 C8.9731473,36.2685394 8.64520836,36.4639593 8.31726943,36.665486 C8.00581905,36.8486921 7.62658241,37.044112 7.30780378,36.8670127 C7.16795646,36.5372417 7.3871931,36.1647227 7.61620073,35.8899135 C7.99177325,35.4074707 8.42047554,34.9555623 8.73742211,34.4364784 C9.05803279,33.9051807 9.25406333,33.276173 9.12154424,32.6776998 C9.05131523,32.3418219 8.88948317,32.0303715 8.76368165,31.7128143 C8.63665875,31.395257 8.57986485,31.0593791 8.46627707,30.7296081 C8.44490302,30.6685394 8.42780378,30.595257 8.47482669,30.5525089 C8.51268928,30.5158677 8.57192592,30.5280814 8.62200226,30.5341883 C9.03299462,30.6196845 9.49894882,30.6502188 9.88001752,30.8395318 C10.2201702,31.0044173 10.5047503,31.0838066 10.8516206,30.8456387 C11.1227656,30.6624326 11.3016969,30.3754097 11.4934526,30.1067074 C11.6412389,29.8990738 11.8018496,29.703654 11.9734526,29.514341 C12.0900939,29.3860967 12.3136053,29.1967837 12.49559,29.1723562 C12.5865824,29.1601425 12.6745213,29.2212112 12.7245977,29.3006005 C12.7752847,29.373883 12.7954374,29.465486 12.8143687,29.5570891 C12.9438343,30.1616692 13.1154374,30.7723562 12.9969641,31.3891501 C12.9713152,31.5235013 12.9395595,31.6822799 13.0311626,31.7799898 C13.0787962,31.8349517 13.1508572,31.8593791 13.2192542,31.8838066 C13.8055137,32.0670127 14.7820023,32.2257914 15.0940633,32.8364784 C15.1087198,32.8609059 15.1221549,32.8975471 15.1294832,32.9280814 L15.1294832,32.9280814 Z" transform="translate(11.199302, 33.504109) rotate(36.000000) translate(-11.199302, -33.504109) "></path>
            <path d="M15.5911413,10.4277257 C15.8183169,10.4277257 16.0448818,10.4277257 16.2567902,10.3239089 C16.912668,10.0002448 16.9364848,8.82161882 17.6638131,8.73612264 C18.1462558,9.04146615 18.4790802,9.56055012 18.5560268,10.1101684 C18.5987749,10.3849776 18.5853398,10.6781074 18.7245764,10.9162753 C18.9474772,11.3010081 19.4641184,11.3742906 19.9178589,11.4109318 C20.2598436,11.4353593 20.6018283,11.4597868 20.9432024,11.4842142 C21.1264085,11.5025349 21.5990802,11.4353593 21.6919047,11.636886 C21.7578589,11.777344 21.5514467,12.0460463 21.4836604,12.15597 C21.3725154,12.3330692 21.2448818,12.4979547 21.101981,12.6506265 C20.8192329,12.95597 20.4741948,13.2124585 20.0937367,13.3834509 C19.6644238,13.5788707 19.4506833,14.085741 19.4598436,14.5498631 C19.4653398,15.026199 19.6534314,15.4658936 19.8396909,15.8872677 C19.9691566,16.2048249 19.5960268,16.5407028 19.2546528,16.4918478 C18.9279352,16.4490997 18.6745001,16.1681837 18.4778589,15.8994814 C18.2751108,15.6185654 18.0839657,15.3254356 17.7780115,15.1849776 C17.4525154,15.0323058 17.090378,15.0811608 16.7416757,15.1422295 C15.7951108,15.2887944 14.8613703,15.447573 13.9227444,15.5941379 C13.6864085,15.636886 13.3621337,15.6185654 13.3273245,15.3742906 C13.3065612,15.2704738 13.3725154,15.166657 13.4445764,15.0689471 C13.8445764,14.4765807 14.2494619,13.896428 14.6494619,13.3040616 C14.9169428,12.9132219 14.7105306,12.388031 14.4369428,11.9971913 C14.2677825,11.7590234 14.0705306,11.5330692 13.8622864,11.3254356 C13.7254925,11.1910845 13.2851871,10.9407028 13.2760268,10.7452829 C13.271752,10.6414662 13.3523627,10.5437562 13.4476299,10.5010081 C13.7297673,10.3788707 14.0906833,10.415512 14.3893093,10.4216188 C14.7899199,10.4216188 15.1905306,10.4216188 15.5911413,10.4277257" transform="translate(17.490300, 12.616366) rotate(36.000000) translate(-17.490300, -12.616366) "></path>
            <path d="M26.6230505,9.83398585 C26.9790811,10.1149019 27.328394,10.4080317 27.6703788,10.7011614 C27.9696154,10.9637568 28.1638139,11.2629935 28.407478,11.5744439 C28.4398444,11.617192 28.4758749,11.6599401 28.5271727,11.6721538 C28.5711421,11.6843675 28.6157223,11.6660469 28.657249,11.6477263 C28.9125162,11.5439095 29.1244246,11.3668103 29.3473253,11.2080317 C29.5696154,11.049253 29.8022872,10.9515431 30.0569437,10.8538332 C30.4007604,10.7255889 30.5833559,10.7378026 30.696333,11.1164286 C30.8636612,11.6721538 30.7506841,12.2889477 30.6548062,12.8568866 C30.6151116,13.0889477 30.5668673,13.3149019 30.5106841,13.546963 C30.4697681,13.7118484 30.3854933,13.9500164 30.4361803,14.1149019 C30.4813711,14.2675736 30.7140429,14.389711 30.828852,14.4935278 C30.9845772,14.6339859 31.14702,14.768337 31.3143482,14.8965813 C31.5329742,15.0614668 31.7882414,15.189711 32.0215238,15.3301691 C32.1522108,15.4156652 32.3036612,15.4706271 32.3207604,15.6416194 C32.3360276,15.7942912 32.2346536,15.9408561 32.1228978,16.0324591 C31.9537375,16.1668103 31.7302261,16.2095584 31.5207604,16.2339859 C31.0822872,16.2767339 30.6383177,16.179024 30.2022872,16.2400927 C30.0166383,16.2645202 29.8126688,16.3500164 29.7528215,16.5271156 C29.7338902,16.5820775 29.7314475,16.6431462 29.7296154,16.698108 C29.7119055,17.1561233 29.7174017,17.6263523 29.5671727,18.0599401 C29.4517528,18.3958179 29.2025925,18.768337 28.9534322,19.0187187 C28.9192337,19.0553599 28.8770963,19.0920011 28.8282414,19.0920011 C28.7873253,19.0920011 28.7519055,19.0675736 28.7213711,19.0370393 C28.4557223,18.7988714 28.3708368,18.4141385 28.2847299,18.0843675 C28.1937375,17.7362759 28.0899208,17.3942912 27.9940429,17.0461996 C27.896333,16.6920011 27.7937375,16.3255889 27.5787757,16.0202454 C27.4920582,15.898108 27.38702,15.7881843 27.2612185,15.708795 C27.0706841,15.5927645 26.8441192,15.5439095 26.6224398,15.5011614 C26.038623,15.3851309 25.4731269,15.2202454 24.8886994,15.1042149 C24.6291574,15.0553599 24.3085467,14.9454362 24.2712948,14.6828408 C24.2303788,14.389711 24.5558749,14.2065049 24.7769437,14.1026881 C25.1225925,13.9378026 25.4389284,13.7179553 25.7638139,13.5225355 C26.0697681,13.3332225 26.3195391,13.1561233 26.4312948,12.789711 C26.5796917,12.3133752 26.4654933,11.8003981 26.3592337,11.3118484 C26.2444246,10.8355126 26.138165,10.3164286 26.278623,9.84009272 C26.2951116,9.69963471 26.5180124,9.74848967 26.6230505,9.83398585 L26.6230505,9.83398585 Z" transform="translate(28.295036, 14.421782) rotate(36.000000) translate(-28.295036, -14.421782) "></path>
            <path d="M30.1925855,22.8066692 C30.6896847,22.9043791 31.2044939,22.9593409 31.7229672,22.9654478 C32.0368603,22.9654478 32.3843412,22.9471272 32.6402191,22.7456005 C32.7941122,22.6112493 32.9009824,22.4219363 32.999303,22.2387302 C33.1776237,21.9028524 33.377929,21.5669745 33.5391504,21.2249898 C33.6942649,20.8891119 33.797471,20.5288066 33.9458679,20.1868218 C33.998387,20.0707913 34.0533488,19.9486539 34.1437305,19.8570508 C34.3306008,19.6677379 34.6322801,19.7288066 34.8014404,19.9181195 C34.8991504,20.0280432 34.9528908,20.1746081 34.9968603,20.3089592 C35.2209824,21.0234631 35.2075473,21.9700279 35.7492267,22.5379669 C36.0716695,22.8738447 36.5803717,22.9532341 37.0377763,22.9043791 C37.3345702,22.8677379 37.6228145,22.7883486 37.9116695,22.7150661 C38.2402191,22.6295699 38.4698374,22.8372035 38.4203717,23.1669745 C38.3641885,23.5272799 38.1767076,23.8753715 37.9299901,24.1440737 C37.7614404,24.3272799 37.5531962,24.5226997 37.3364023,24.6448371 C37.1098374,24.7730814 36.8771656,24.8524707 36.669532,25.0173562 C36.558387,25.1089592 36.4484633,25.2249898 36.4484633,25.3715547 C36.4484633,25.4326234 36.4710588,25.4936921 36.4936542,25.5547608 C36.6096847,25.8662112 36.778845,26.1837684 36.8478527,26.5074325 C36.9254099,26.8738447 37.0139595,27.240257 37.079303,27.6066692 C37.1025091,27.7349134 37.1251046,27.8631577 37.0835778,27.9852951 C36.9510588,28.3578142 36.3922801,28.2417837 36.0454099,28.0524707 C35.5031198,27.7654478 34.9449519,27.5089592 34.4399137,27.1608676 C34.3116695,27.0753715 34.1724328,26.9837684 34.0160969,26.9837684 C33.889074,26.9837684 33.7699901,27.0448371 33.6618985,27.1120127 C33.3706008,27.2891119 33.1348756,27.5456005 32.8631198,27.7532341 C32.5913641,27.9608676 32.306784,28.1623944 32.0075473,28.3272799 C31.857929,28.412776 31.7077,28.4982722 31.5342649,28.4860585 C31.3687687,28.4738447 31.198387,28.321173 31.2344175,28.1501806 C31.3632725,27.5272799 31.5000664,26.8982722 31.637471,26.2692646 C31.7443412,25.7440737 31.7760969,25.0662112 31.3009824,24.8280432 C30.897929,24.6326234 30.5070893,24.3883486 30.1345702,24.13186 C29.8261733,23.9242264 29.1458679,23.5333867 29.0994557,23.1059058 C29.0426618,22.5929287 29.9415931,22.7578142 30.1925855,22.8066692 L30.1925855,22.8066692 Z" transform="translate(33.761980, 24.114599) rotate(36.000000) translate(-33.761980, -24.114599) "></path>
            <path d="M5.07529433,19.1493058 C5.51193555,19.0271683 5.99682105,18.8867103 6.22766074,18.4958706 C6.41208823,18.1844203 6.38827143,17.7935806 6.40353861,17.4210615 C6.42369128,16.9202981 6.50796609,16.4195348 6.67040884,15.9431989 C6.75346227,15.6928172 6.85605769,15.4546493 6.97636303,15.2225882 C7.04598136,15.0882371 7.19498899,14.7279317 7.39529433,14.7767867 C7.49850044,14.8012142 7.55773708,14.9783134 7.60170655,15.0638096 C7.69392029,15.2348019 7.78002716,15.4119012 7.85758441,15.5890004 C8.04750807,16.0348019 8.18857677,16.4928172 8.27895845,16.9630462 C8.37056151,17.445489 8.36384395,17.9340386 8.52079052,18.4042676 C8.53239357,18.4348019 8.54582868,18.4714432 8.57392029,18.4958706 C8.59529433,18.5141912 8.62277525,18.5202981 8.65025616,18.526405 C9.05514166,18.5996874 9.45453097,18.3554126 9.85208823,18.3248783 C10.3955997,18.2882371 10.9391111,18.2210615 11.4826226,18.1722065 C11.7659814,18.147779 11.854531,18.5447256 11.7739203,18.8134279 C11.6902562,19.1126645 11.5388058,19.4302218 11.3580424,19.6806035 C11.1650653,19.9431989 10.8920882,20.1325119 10.6765157,20.3767867 C10.3320882,20.7676264 10.1134623,21.2378554 10.3510195,21.726405 C10.6142256,22.2760233 10.9720882,22.7279317 11.3244546,23.2225882 C11.3952943,23.3325119 11.4801798,23.4424355 11.4862867,23.5828935 C11.4936149,23.9920538 10.8914775,24.1019775 10.5305615,23.9126645 C10.1696455,23.7233516 9.83315693,23.3874737 9.42888212,23.4302218 C9.08689739,23.4546493 8.83529433,23.7355653 8.62582868,23.9920538 C8.29972181,24.3890004 7.93575235,24.7309851 7.64017983,25.1401454 C7.52537067,25.3050309 7.38796609,25.4577027 7.20537067,25.5309851 C7.175447,25.5431989 7.14369128,25.5554126 7.11193555,25.5493058 C6.78827143,25.5309851 6.76506532,24.9202981 6.7943783,24.7126645 C6.91895845,23.8393821 7.04048517,22.9783134 7.17056151,22.1172447 C7.23040884,21.7447256 6.82002716,21.4760233 6.48414929,21.3111378 C5.97422563,21.0546493 5.45208823,20.8225882 4.93666838,20.5722065 C4.45361494,20.3462523 3.88384395,20.1569393 3.45453097,19.8332752 C3.39651571,19.7905271 3.33483632,19.7233516 3.36048517,19.656176 C3.3684241,19.6378554 3.38430197,19.6195348 3.4014012,19.6012142 C3.45941647,19.5523592 3.53575235,19.5279317 3.60903479,19.5096111 C4.0933096,19.3630462 4.58613403,19.2836569 5.07529433,19.1493058" transform="translate(7.578450, 20.161598) rotate(36.000000) translate(-7.578450, -20.161598) "></path>
        </g>
    </g>
</svg>