<svg width="154" height="154" xmlns="http://www.w3.org/2000/svg">

 <g>
  <title>background</title>
  <rect fill="none" id="canvas_background" height="402" width="582" y="-1" x="-1"/>
 </g>
 <g>
  <title>Layer 1</title>
  <g id="svg_1">
   <circle id="svg_2" fill="none" r="77" cy="77" cx="77"/>
   <g id="svg_3">
    <path id="svg_4" fill="#f993a9" d="m41.335,92.571c0,6.94 2.058,13.385 5.56,18.814c0.261,-0.017 0.52,-0.018 0.773,0.001c-0.005,-0.332 0.073,-0.614 0.27,-0.804c0.232,-0.223 0.582,-0.287 0.992,-0.225c-4.064,-5.167 -6.468,-11.689 -6.468,-19.093c0,-15.578 10.622,-28.673 25.017,-32.442c-15.033,3.866 -26.144,17.509 -26.144,33.749z"/>
    <path id="svg_5" fill="#C01238" d="m52.719,114.606c0.136,0.042 0.28,0.084 0.42,0.125c-0.144,-0.122 -0.286,-0.247 -0.427,-0.372c0.007,0.085 0.012,0.169 0.007,0.247z"/>
    <path id="svg_6" fill="#C01238" d="m76.18,57.729c-0.03,0 -0.06,0.001 -0.09,0.001c18.481,0.049 33.448,15.044 33.448,33.536c0,7.413 -2.41,13.943 -6.483,19.113c0.458,-0.096 0.852,-0.041 1.105,0.202c0.197,0.191 0.276,0.477 0.27,0.809c0.345,-0.029 0.701,-0.018 1.06,0.018c3.499,-5.435 5.537,-11.897 5.537,-18.836c-0.001,-19.247 -15.603,-34.843 -34.847,-34.843z"/>
    <path id="svg_7" fill="#3d0911" d="m41.335,92.571c0,-16.24 11.11,-29.884 26.144,-33.748c2.721,-0.714 5.577,-1.095 8.521,-1.095c0.03,0 0.06,0.001 0.09,0.001c0.031,0 0.061,-0.001 0.09,-0.001c19.244,0 34.846,15.597 34.846,34.843c0,6.939 -2.038,13.401 -5.537,18.836c0.067,0.006 0.133,0.01 0.2,0.019c8.087,-7.788 13.133,-18.718 13.133,-30.831c0,-23.649 -35.133,-56.922 -42.824,-56.922c-8.725,0 -42.822,33.272 -42.822,56.922c0,12.122 5.044,23.057 13.141,30.846c0.193,-0.029 0.386,-0.045 0.578,-0.055c-3.501,-5.43 -5.56,-11.874 -5.56,-18.815z"/>
    <path id="svg_8" fill="#3d3d3d" d="m103.055,110.379c4.073,-5.17 6.483,-11.7 6.483,-19.113c0,-18.492 -14.967,-33.487 -33.448,-33.536c-0.03,0 -0.06,-0.001 -0.09,-0.001c-2.944,0 -5.8,0.381 -8.521,1.095c-14.395,3.77 -25.017,16.864 -25.017,32.442c0,7.403 2.404,13.926 6.468,19.093c0.722,0.111 1.629,0.631 2.422,1.459c0.818,0.853 1.301,1.808 1.36,2.542c0.141,0.125 0.283,0.25 0.427,0.372c5.991,5.113 14.025,8.084 22.861,8.084c-17.091,0 -31.021,-13.37 -31.999,-30.215c-0.332,0 -0.441,-0.33 0,0c11.512,4.193 26.757,-0.377 30.97,-11.89c0.288,-0.792 0.523,-1.604 0.7,-2.431c3.461,14.974 17.887,17.596 32.332,14.23c-1.175,0.142 1.181,-0.276 0,0c-0.933,16.888 -14.881,30.305 -32.003,30.305c9.099,0 17.346,-3.148 23.388,-8.543c0.089,-0.722 0.572,-1.64 1.357,-2.457c0.753,-0.785 1.607,-1.292 2.31,-1.436z"/>
    <!-- 		<path style="fill:#FFD1C1;" d="M108.003,92.51c-14.445,3.366-28.872,0.744-32.332-14.23c-0.179,0.843-0.415,1.651-0.7,2.431
			c-4.213,11.513-19.459,16.083-30.97,11.89c0.978,16.845,14.908,30.215,31.999,30.215C93.122,122.815,107.07,109.398,108.003,92.51
			z M96.056,98.454c0,1.503-1.219,2.723-2.723,2.723c-1.503,0-2.723-1.22-2.723-2.723c0-1.504,1.219-2.723,2.723-2.723
			C94.837,95.731,96.056,96.95,96.056,98.454z M78.84,108.113c-1.312-1.293-3.169-1.186-3.169-1.186s-1.831-0.085-3.169,1.186
			c0,0,0.929-2.023,3.169-2.023C77.911,106.09,78.84,108.113,78.84,108.113z M61.752,98.454c0,1.503-1.219,2.723-2.723,2.723
			c-1.504,0-2.723-1.22-2.723-2.723c0-1.504,1.218-2.723,2.723-2.723C60.533,95.731,61.752,96.95,61.752,98.454z M61.409,105.434
			h-4.76c-0.708,0-1.281-0.574-1.281-1.281c0-0.708,0.574-1.282,1.281-1.282h4.76c0.707,0,1.281,0.574,1.281,1.282
			C62.69,104.859,62.117,105.434,61.409,105.434z M75.671,117.553c-4.481,0-6.338-4.047-6.338-4.047
			c2.623,2.585,6.338,2.372,6.338,2.372s3.661,0.17,6.339-2.372C82.01,113.506,80.151,117.553,75.671,117.553z M95.938,105.434
			h-4.759c-0.708,0-1.282-0.574-1.282-1.281c0-0.708,0.574-1.282,1.282-1.282h4.759c0.707,0,1.281,0.574,1.281,1.282
			C97.219,104.859,96.645,105.434,95.938,105.434z"/> -->
    <path id="svg_9" fill="#FFD1C1" d="m108.003,92.51c1.182,-0.277 -1.174,0.142 0,0l0,0z"/>
    <!-- 	<path style="fill:#CC1232;" d="M75.671,115.878c0,0-3.716,0.213-6.338-2.372c0,0,1.857,4.047,6.338,4.047
			c4.48,0,6.339-4.047,6.339-4.047C79.332,116.048,75.671,115.878,75.671,115.878z"/>
		<path style="fill:#79533C;" d="M90.611,98.454c0,1.503,1.219,2.723,2.723,2.723c1.504,0,2.723-1.22,2.723-2.723
			c0-1.504-1.219-2.723-2.723-2.723C91.83,95.731,90.611,96.95,90.611,98.454z M94.359,99.479c0,0.565-0.459,1.024-1.025,1.024
			s-1.025-0.459-1.025-1.024c0-0.567,0.459-1.025,1.025-1.025S94.359,98.912,94.359,99.479z"/>
		<path style="fill:#79533C;" d="M56.307,98.454c0,1.503,1.218,2.723,2.723,2.723c1.504,0,2.723-1.22,2.723-2.723
			c0-1.504-1.219-2.723-2.723-2.723C57.525,95.731,56.307,96.95,56.307,98.454z M60.054,99.479c0,0.565-0.458,1.024-1.025,1.024
			c-0.566,0-1.024-0.459-1.024-1.024c0-0.567,0.458-1.025,1.024-1.025C59.596,98.454,60.054,98.912,60.054,99.479z"/> -->
    <!-- <circle style="fill:#FFFFFF;" cx="59.03" cy="99.479" r="1.025"/>
		<circle style="fill:#FFFFFF;" cx="93.334" cy="99.479" r="1.025"/> -->
   </g>
  </g>
  <g id="svg_17"/>
  <g id="svg_18"/>
  <g id="svg_19"/>
  <g id="svg_20"/>
  <g id="svg_21"/>
  <g id="svg_22"/>
  <g id="svg_23"/>
  <g id="svg_24"/>
  <g id="svg_25"/>
  <g id="svg_26"/>
  <g id="svg_27"/>
  <g id="svg_28"/>
  <g id="svg_29"/>
  <g id="svg_30"/>
  <g id="svg_31"/>
 </g>
</svg>