<?xml version="1.0" encoding="UTF-8" standalone="no"?>
<svg width="46px" height="50px" viewBox="0 0 46 50" version="1.1" xmlns="http://www.w3.org/2000/svg" xmlns:xlink="http://www.w3.org/1999/xlink">
    <!-- Generator: Sketch 41.1 (35376) - http://www.bohemiancoding.com/sketch -->
    <title>Artboard 5</title>
    <desc>Created with Sketch.</desc>
    <defs></defs>
    <g stroke="none" stroke-width="1" fill="none" fill-rule="evenodd">
        <g fill="#E47171">
            <path d="M45.689893,42.1740348 L46.318636,43.0028323 L38.5450872,49.6332122 C36.4111611,49.4807889 34.2010566,49.0711574 31.9147073,48.4043055 C29.7617284,47.7755595 27.5802028,46.937244 25.3700651,45.8893339 C23.2742449,44.8795296 21.1975088,43.6982668 19.1397944,42.3455102 C17.6155615,41.3357059 15.8055622,40.4497588 13.709742,39.6876424 C11.9759271,39.0588963 10.3088224,38.1729493 8.70837785,37.0297746 C7.0507746,35.8484941 5.59324878,34.4576525 4.33575666,32.857208 C2.98299998,31.1614989 1.94463191,29.3324469 1.22062129,27.3699971 C0.420399036,25.2170181 0.0202939082,22.9973873 0.0202939082,20.711038 C0.0202939082,15.1856938 2.18753002,10.3510902 6.52206725,6.20708207 C10.8566045,2.06307394 16.35805,-0.00889904239 23.0265688,-0.00889904239 C29.7903522,-0.00889904239 35.2775082,2.05831078 39.4882015,6.19279245 C43.6988949,10.3272741 45.8042099,15.0523252 45.8042099,20.3680873 C45.8042099,24.6740452 44.465763,28.6274649 41.788829,32.2284651 C39.1118951,35.8294652 35.4966594,38.3444117 30.9430137,39.7733801 C34.4106435,41.7548828 38.0306423,42.7456193 41.8031186,42.7456193 C43.2701928,42.7456193 44.5657713,42.555093 45.689893,42.1740348 Z M22.9122519,18.0068543 C22.9441416,18.0068543 22.9759822,18.0069047 23.0077737,18.0070056 C23.0541215,17.9904248 23.0993981,17.971535 23.1432383,17.9500577 C26.7163113,18.0353482 29.663922,18.7058835 31.9861554,20.0193679 C34.3582428,21.3610504 35.5442687,23.1662485 35.5442687,25.4350163 C35.5442687,27.6807509 34.3725323,29.4744326 32.0290242,30.8161151 C29.6855162,32.1577976 26.6466225,32.8286287 22.9122519,32.8286287 C19.1207226,32.8286287 16.0675395,32.1491603 13.7526108,30.7902029 C11.4376821,29.4312455 10.2802351,27.6462012 10.2802351,25.4350163 C10.2802351,23.2123148 11.4376821,21.4186332 13.7526108,20.0539175 C15.1534184,19.228102 16.824552,18.6521486 18.766032,18.3260528 C18.6633579,18.2528906 18.5656057,18.1730519 18.4727754,18.0865365 C17.8713199,17.5259963 17.5705966,16.8352193 17.5705966,16.0141848 C17.5705966,15.1931503 17.8876858,14.4962361 18.5218736,13.9234213 C19.1560614,13.3506065 19.9845846,13.0642034 21.0074682,13.0642034 C21.8230473,13.0642034 22.5131424,13.2319538 23.0777741,13.5674596 L23.0777741,14.8399203 C22.384941,14.4498607 21.7289415,14.2548339 21.109756,14.2548339 C20.5014813,14.2548339 20.0043673,14.4178109 19.6183992,14.7437698 C19.2324312,15.0697287 19.03945,15.4850132 19.03945,15.9896357 C19.03945,16.4969859 19.2297035,16.91568 19.6102162,17.2457304 C19.9323846,17.525174 20.673647,17.9341558 21.2542943,18.053005 C21.790301,18.0222378 22.3429534,18.0068543 22.9122519,18.0068543 Z"></path>
            <path d="M45.689893,42.1740348 L46.318636,43.0028323 L38.5450872,49.6332122 C36.4111611,49.4807889 34.2010566,49.0711574 31.9147073,48.4043055 C29.7617284,47.7755595 27.5802028,46.937244 25.3700651,45.8893339 C23.2742449,44.8795296 21.1975088,43.6982668 19.1397944,42.3455102 C17.6155615,41.3357059 15.8055622,40.4497588 13.709742,39.6876424 C11.9759271,39.0588963 10.3088224,38.1729493 8.70837785,37.0297746 C7.0507746,35.8484941 5.59324878,34.4576525 4.33575666,32.857208 C2.98299998,31.1614989 1.94463191,29.3324469 1.22062129,27.3699971 C0.420399036,25.2170181 0.0202939082,22.9973873 0.0202939082,20.711038 C0.0202939082,15.1856938 2.18753002,10.3510902 6.52206725,6.20708207 C10.8566045,2.06307394 16.35805,-0.00889904239 23.0265688,-0.00889904239 C29.7903522,-0.00889904239 35.2775082,2.05831078 39.4882015,6.19279245 C43.6988949,10.3272741 45.8042099,15.0523252 45.8042099,20.3680873 C45.8042099,24.6740452 44.465763,28.6274649 41.788829,32.2284651 C39.1118951,35.8294652 35.4966594,38.3444117 30.9430137,39.7733801 C34.4106435,41.7548828 38.0306423,42.7456193 41.8031186,42.7456193 C43.2701928,42.7456193 44.5657713,42.555093 45.689893,42.1740348 Z M23.0077737,18.0070056 C25.7224058,18.0070056 29.663922,18.7058835 31.9861554,20.0193679 C34.3582428,21.3610504 35.5442687,23.1662485 35.5442687,25.4350163 C35.5442687,27.6807509 34.3725323,29.4744326 32.0290242,30.8161151 C29.6855162,32.1577976 26.6466225,32.8286287 22.9122519,32.8286287 C19.1207226,32.8286287 16.0675395,32.1491603 13.7526108,30.7902029 C11.4376821,29.4312455 10.2802351,27.6462012 10.2802351,25.4350163 C10.2802351,23.2123148 11.4376821,21.4186332 13.7526108,20.0539175 C15.1534184,19.228102 16.824552,18.6521486 18.766032,18.3260528 C18.6633579,18.2528906 20.2931416,18.0070056 23.0077737,18.0070056 Z"></path>
        </g>
    </g>
</svg>