<svg width="100" height="50" xmlns="http://www.w3.org/2000/svg">
 <!-- Generator: Sketch 41.1 (35376) - http://www.bohemiancoding.com/sketch -->
 <title>Artboard 2</title>
 <desc>Created with Sketch.</desc>
 <defs>
  <linearGradient id="linearGradient-1" y2="50%" x2="75.8690986%" y1="50%" x1="25.210544%">
   <stop offset="0%" stop-color="#FCAFAF"/>
   <stop offset="100%" stop-color="#FE667B"/>
  </linearGradient>
 </defs>
 <g>
  <title>background</title>
  <rect fill="none" id="canvas_background" height="52" width="102" y="-1" x="-1"/>
 </g>
 <g>
  <title>Layer 1</title>
  <g stroke="null" id="svg_1" fill-rule="evenodd" fill="none">
   <g stroke="null" id="svg_2" fill="url(#linearGradient-1)">
    <path stroke="null" id="svg_3" d="m36.796559,41.011355c-3.670399,2.698418 -8.202968,4.292548 -13.107864,4.292548c-12.234186,0 -22.151951,-9.917766 -22.151951,-22.151951c0,-12.234186 9.917766,-22.151951 22.151951,-22.151951c11.1732,0 20.414331,8.272158 21.933139,19.026216l13.484173,0c1.518808,-10.754058 10.759939,-19.026216 21.933139,-19.026216c6.513774,0 12.3709,2.811441 16.424114,7.287062c-1.205974,0.818755 -2.324745,1.755022 -3.339617,2.792211c-3.252765,-3.523628 -7.910918,-5.730424 -13.084497,-5.730424c-9.832381,0 -17.803102,7.970721 -17.803102,17.803102c0,9.832381 7.970721,17.803102 17.803102,17.803102c3.833206,0 7.383463,-1.211445 10.28879,-3.27236c0.782804,1.229007 1.686949,2.374124 2.695694,3.418715c-3.648375,2.643796 -8.134403,4.202494 -12.984485,4.202494c-11.453999,0 -20.8776,-8.693168 -22.032923,-19.841625l-13.284604,0c-0.486381,4.693392 -2.438172,8.951628 -5.389942,12.309274l2.967204,5.823471c0.545482,1.070564 0.119596,2.380742 -0.950278,2.925871l-0.241111,0.122852c-1.070306,0.545348 -2.379992,0.119906 -2.925642,-0.950993l-2.38529,-4.681398zm-1.172314,-4.649629c-3.157583,2.85478 -7.343538,4.593328 -11.93555,4.593328c-9.832381,0 -17.803102,-7.970721 -17.803102,-17.803102c0,-9.832381 7.970721,-17.803102 17.803102,-17.803102c9.832381,0 17.803102,7.970721 17.803102,17.803102c0,4.865688 -1.951951,9.275476 -5.115513,12.48902c-0.315085,0.181116 -0.568895,0.430966 -0.752038,0.720754z"/>
   </g>
  </g>
 </g>
</svg>